/* XPM */
static char * start_xpm[] = {
"43 19 108 2",
"  	c #313946",
". 	c #323A47",
"+ 	c #353C48",
"@ 	c #383E49",
"# 	c #515255",
"$ 	c #525252",
"% 	c #515254",
"& 	c #323946",
"* 	c #727375",
"= 	c #B9B9B9",
"- 	c #A6A6A6",
"; 	c #B8B8B8",
"> 	c #707174",
", 	c #323A46",
"' 	c #9D9D9E",
") 	c #B6B0A8",
"! 	c #EEE2D3",
"~ 	c #B7B1A9",
"{ 	c #979899",
"] 	c #333A46",
"^ 	c #5C5754",
"/ 	c #DCAA4C",
"( 	c #EAB329",
"_ 	c #DBA94D",
": 	c #5B5753",
"< 	c #393F49",
"[ 	c #585555",
"} 	c #DCA884",
"| 	c #F0A33B",
"1 	c #DBA885",
"2 	c #46484D",
"3 	c #5E5E5E",
"4 	c #F1EFEF",
"5 	c #F9F2EF",
"6 	c #46494E",
"7 	c #3B404A",
"8 	c #4F4F50",
"9 	c #8A8A8A",
"0 	c #FCFCFC",
"a 	c #FFFFFF",
"b 	c #898989",
"c 	c #4F4F4F",
"d 	c #3A404A",
"e 	c #47494D",
"f 	c #5F5E5E",
"g 	c #E0E0E0",
"h 	c #DEDEDE",
"i 	c #5C5C5C",
"j 	c #46484C",
"k 	c #373C46",
"l 	c #937743",
"m 	c #C6B293",
"n 	c #FDFDFC",
"o 	c #FBF8F3",
"p 	c #958874",
"q 	c #7B6848",
"r 	c #6B5C43",
"s 	c #363B46",
"t 	c #A0803B",
"u 	c #DFAA1E",
"v 	c #EBB94C",
"w 	c #FCF4E9",
"x 	c #F8E9D4",
"y 	c #C0963D",
"z 	c #BE9333",
"A 	c #AA8536",
"B 	c #343A46",
"C 	c #383C46",
"D 	c #BF922C",
"E 	c #EAB108",
"F 	c #EAB10B",
"G 	c #F1CD92",
"H 	c #FEFDFB",
"I 	c #FEFEFE",
"J 	c #F2DDC0",
"K 	c #E9B117",
"L 	c #E9B00A",
"M 	c #DEA91D",
"N 	c #544C44",
"O 	c #584F44",
"P 	c #E0AB1B",
"Q 	c #EAB109",
"R 	c #EAB222",
"S 	c #DDC8AA",
"T 	c #D1D1D1",
"U 	c #BABAB9",
"V 	c #C39D55",
"W 	c #E1AB14",
"X 	c #8E6F39",
"Y 	c #353B46",
"Z 	c #373C45",
"` 	c #7A623D",
" .	c #A98231",
"..	c #CB9B23",
"+.	c #E3AD11",
"@.	c #A07E3E",
"#.	c #535353",
"$.	c #4E4E4E",
"%.	c #AB8436",
"&.	c #E1AA14",
"*.	c #8C6E3A",
"=.	c #3D3E45",
"-.	c #504842",
";.	c #383C45",
">.	c #333A45",
",.	c #323945",
"'.	c #3A3D45",
").	c #4D4643",
"                                                                                      ",
"                                                                                      ",
"                                      . + .                                           ",
"                                    @ # $ % @                                         ",
"                                  & * = - ; > &                                       ",
"                                  , ' ) ! ~ { ,                                       ",
"                                  ] ^ / ( _ : ]                                       ",
"                                  < [ } | 1 [ <                                       ",
"                                , 2 3 4 5 4 3 6 ,                                     ",
"                                7 8 9 0 a 0 b c d                                     ",
"                                e f g a a a h i j ,                                   ",
"                              k l m n a a a o p q r                                   ",
"                            s t u v w a a a x y z A B                                 ",
"                            C D E F G H a I J K L M N                                 ",
"                            O P Q E R S T U V E W X Y                                 ",
"                            Z `  ...+.@.#.$.%.&.*.B                                   ",
"                                & =.-.;.>.,.'.).B                                     ",
"                                                                                      ",
"                                                                                      "};
